<svg id="Ebene_1" data-name="Ebene 1" xmlns="http://www.w3.org/2000/svg" width="121.99mm" height="98.8mm" viewBox="0 0 345.8 280.06">
  <title>earth</title>
  <g>
    <polygon points="334.25 120.03 322.73 100.03 316.96 90.03 311.2 80.03 299.68 60.03 288.15 40.03 282.39 30.03 276.63 20.03 265.1 0.03 242.05 0.03 230.53 0.03 219 0.03 195.95 0.03 172.9 0.03 161.38 0.03 149.85 0.03 126.8 0.03 103.75 0.03 92.23 0.03 80.7 0.03 92.23 20.03 103.75 40.03 109.52 50.03 115.28 60.03 126.8 80.03 138.33 100.03 144.09 110.03 149.85 120.03 161.38 140.03 184.43 140.03 195.95 140.03 207.48 140.03 230.53 140.03 253.58 140.03 265.1 140.03 276.63 140.03 299.68 140.03 322.73 140.03 334.25 140.03 345.78 140.03 334.25 120.03" fill="#0090df" stroke="#0090df" stroke-width="0.03"/>
    <polygon points="149.85 120.03 144.09 110.03 138.33 100.03 126.8 80.03 115.28 60.03 109.52 50.03 103.75 40.03 92.23 20.03 80.7 0.03 74.94 10.03 69.18 20.03 57.65 40.03 46.13 60.03 40.37 70.03 34.6 80.03 23.08 100.03 11.55 120.03 5.79 130.03 0.03 140.03 5.79 150.03 11.55 160.03 23.08 180.03 34.6 200.03 40.37 210.03 46.13 220.03 57.65 240.03 69.18 260.03 74.94 270.03 80.7 280.03 92.23 260.03 103.75 240.03 109.52 230.03 115.28 220.03 126.8 200.03 138.33 180.03 144.09 170.03 149.85 160.03 161.38 140.03 149.85 120.03" fill="#00588a" stroke="#00588a" stroke-width="0.03"/>
    <polygon points="334.25 140.03 322.73 140.03 299.68 140.03 276.63 140.03 265.1 140.03 253.58 140.03 230.53 140.03 207.48 140.03 195.95 140.03 184.43 140.03 161.38 140.03 149.85 160.03 144.09 170.03 138.33 180.03 126.8 200.03 115.28 220.03 109.52 230.03 103.75 240.03 92.23 260.03 80.7 280.03 92.23 280.03 103.75 280.03 126.8 280.03 149.85 280.03 161.38 280.03 172.9 280.03 195.95 280.03 219 280.03 230.53 280.03 242.05 280.03 265.1 280.03 276.63 260.03 282.39 250.03 288.15 240.03 299.68 220.03 311.2 200.03 316.96 190.03 322.73 180.03 334.25 160.03 345.78 140.03 334.25 140.03" fill="#0079be" stroke="#0079be" stroke-width="0.03"/>
  </g>
  <g>
    <g>
      <polygon points="207.48 20.03 230.53 20.03 219 0.03 195.95 0.03 172.9 0.03 161.38 0.03 149.85 0.03 144.09 10.03 138.33 20.03 144.09 30.03 149.85 40.03 161.38 40.03 172.9 40.03 178.67 50.03 184.43 60.03 195.95 60.03 207.48 60.03 213.24 50.03 219 40.03 213.24 30.03 207.48 20.03" fill="#78d500" stroke="#78d500" stroke-width="0.03"/>
      <polygon points="184.43 100.03 195.95 80.03 172.9 80.03 161.38 100.03 172.9 120.03 195.95 120.03 207.48 100.03 195.95 100.03 184.43 100.03" fill="#78d500" stroke="#78d500" stroke-width="0.03"/>
      <polygon points="322.73 100.03 316.96 90.03 311.2 80.03 299.68 60.03 288.15 40.03 282.39 30.03 276.63 20.03 265.1 0.03 253.58 20.03 230.53 20.03 219 40.03 230.53 40.03 242.05 40.03 247.81 50.03 253.58 60.03 265.1 80.03 288.15 80.03 282.39 90.03 276.63 100.03 299.68 100.03 288.15 120.03 299.68 120.03 311.2 120.03 334.25 120.03 322.73 100.03" fill="#78d500" stroke="#78d500" stroke-width="0.03"/>
    </g>
    <g>
      <polygon points="92.23 80.03 103.75 80.03 109.52 70.03 115.28 60.03 92.23 60.03 80.7 40.03 74.94 50.03 69.18 60.03 57.65 80.03 80.7 80.03 92.23 80.03" fill="#61ac00" stroke="#61ac00" stroke-width="0.03"/>
      <polygon points="46.13 100.03 23.08 100.03 34.6 120.03 40.37 110.03 46.13 100.03" fill="#61ac00" stroke="#61ac00" stroke-width="0.03"/>
      <polygon points="80.7 160.03 92.23 160.03 103.75 160.03 109.52 150.03 115.28 140.03 92.23 140.03 103.75 120.03 92.23 120.03 80.7 120.03 74.94 110.03 69.18 100.03 57.65 100.03 46.13 100.03 57.65 120.03 69.18 140.03 57.65 140.03 46.13 140.03 57.65 120.03 34.6 120.03 23.08 140.03 0.03 140.03 5.79 150.03 11.55 160.03 23.08 180.03 46.13 180.03 57.65 200.03 69.18 180.03 74.94 190.03 80.7 200.03 92.23 180.03 80.7 160.03" fill="#61ac00" stroke="#61ac00" stroke-width="0.03"/>
      <polygon points="103.75 200.03 92.23 200.03 80.7 200.03 74.94 210.03 69.18 220.03 92.23 220.03 103.75 240.03 109.52 230.03 115.28 220.03 126.8 200.03 103.75 200.03" fill="#61ac00" stroke="#61ac00" stroke-width="0.03"/>
    </g>
    <g>
      <polygon points="316.96 170.03 311.2 160.03 299.68 160.03 288.15 160.03 265.1 160.03 276.63 180.03 282.39 190.03 288.15 200.03 299.68 180.03 311.2 200.03 316.96 190.03 322.73 180.03 316.96 170.03" fill="#61ac00" stroke="#61ac00" stroke-width="0.03"/>
      <polygon points="230.53 200.03 219 200.03 195.95 200.03 184.43 180.03 161.38 180.03 138.33 180.03 126.8 200.03 138.33 220.03 144.09 210.03 149.85 200.03 161.38 220.03 138.33 220.03 126.8 240.03 115.28 260.03 126.8 260.03 138.33 260.03 161.38 260.03 149.85 240.03 161.38 240.03 172.9 240.03 161.38 260.03 184.43 260.03 195.95 260.03 207.48 260.03 213.24 250.03 219 240.03 230.53 240.03 242.05 240.03 230.53 220.03 242.05 200.03 230.53 200.03" fill="#61ac00" stroke="#61ac00" stroke-width="0.03"/>
    </g>
  </g>
  <g>
    <polygon points="109.52 10.03 103.75 0.03 92.23 0.03 80.7 0.03 92.23 20.03 115.28 20.03 109.52 10.03" fill="#fff" stroke="#fff" stroke-width="0.03"/>
    <polygon points="80.7 0.03 74.94 10.03 69.18 20.03 57.65 40.03 80.7 40.03 92.23 20.03 80.7 0.03" fill="#cbcbcb" stroke="#cbcbcb" stroke-width="0.03"/>
    <g>
      <polygon points="265.1 240.03 253.58 260.03 247.81 270.03 242.05 280.03 265.1 280.03 276.63 260.03 265.1 240.03" fill="#e6e6e6" stroke="#e6e6e6" stroke-width="0.03"/>
      <polygon points="219 280.03 230.53 280.03 242.05 280.03 230.53 260.03 219 280.03" fill="#e6e6e6" stroke="#e6e6e6" stroke-width="0.03"/>
    </g>
  </g>
</svg>
